<svg width="109" height="23" viewBox="0 0 109 23" fill="none" xmlns="http://www.w3.org/2000/svg">
<path d="M10.3204 21.28C8.92044 21.28 7.61377 21.0187 6.40044 20.496C5.1871 19.9733 4.1231 19.2547 3.20844 18.34C2.29377 17.4067 1.5751 16.3333 1.05244 15.12C0.548438 13.888 0.296438 12.572 0.296438 11.172C0.296438 9.772 0.548438 8.46533 1.05244 7.252C1.5751 6.03867 2.28444 4.97467 3.18044 4.06C4.0951 3.12667 5.14977 2.408 6.34444 1.904C7.55777 1.38133 8.86444 1.12 10.2644 1.12C11.6644 1.12 12.9618 1.38133 14.1564 1.904C15.3698 2.408 16.4338 3.12667 17.3484 4.06C18.2631 4.97467 18.9724 6.048 19.4764 7.28C19.9991 8.49333 20.2604 9.8 20.2604 11.2C20.2604 12.6 19.9991 13.916 19.4764 15.148C18.9724 16.3613 18.2631 17.4253 17.3484 18.34C16.4524 19.2547 15.3978 19.9733 14.1844 20.496C12.9898 21.0187 11.7018 21.28 10.3204 21.28ZM10.2644 18.2C11.5898 18.2 12.7471 17.9013 13.7364 17.304C14.7444 16.7067 15.5284 15.8853 16.0884 14.84C16.6671 13.776 16.9564 12.5533 16.9564 11.172C16.9564 10.1453 16.7884 9.212 16.4524 8.372C16.1351 7.51333 15.6778 6.776 15.0804 6.16C14.4831 5.52533 13.7738 5.04 12.9524 4.704C12.1498 4.368 11.2538 4.2 10.2644 4.2C8.95777 4.2 7.80044 4.49867 6.79244 5.096C5.8031 5.67467 5.0191 6.48667 4.44044 7.532C3.88044 8.57733 3.60044 9.79067 3.60044 11.172C3.60044 12.1987 3.7591 13.1507 4.07644 14.028C4.41244 14.8867 4.86977 15.624 5.44844 16.24C6.04577 16.856 6.7551 17.3413 7.57644 17.696C8.39777 18.032 9.29377 18.2 10.2644 18.2ZM19.2804 22.344L10.4604 13.524L12.5324 11.452L21.3524 20.272L19.2804 22.344ZM29.3412 21.28C28.2025 21.28 27.1852 21.028 26.2892 20.524C25.4119 20.02 24.7212 19.3293 24.2172 18.452C23.7319 17.556 23.4892 16.5293 23.4892 15.372V7.56H26.5692V15.232C26.5692 15.8853 26.6719 16.4453 26.8772 16.912C27.1012 17.36 27.4185 17.7053 27.8292 17.948C28.2585 18.1907 28.7625 18.312 29.3412 18.312C30.2372 18.312 30.9185 18.0507 31.3852 17.528C31.8705 16.9867 32.1132 16.2213 32.1132 15.232V7.56H35.1932V15.372C35.1932 16.548 34.9412 17.584 34.4372 18.48C33.9519 19.3573 33.2705 20.048 32.3932 20.552C31.5159 21.0373 30.4985 21.28 29.3412 21.28ZM38.318 21V7.56H41.398V21H38.318ZM39.858 5.096C39.3354 5.096 38.8967 4.91867 38.542 4.564C38.206 4.20933 38.038 3.77067 38.038 3.248C38.038 2.72533 38.206 2.28667 38.542 1.932C38.8967 1.57733 39.3354 1.4 39.858 1.4C40.3994 1.4 40.838 1.57733 41.174 1.932C41.51 2.28667 41.678 2.72533 41.678 3.248C41.678 3.77067 41.51 4.20933 41.174 4.564C40.838 4.91867 40.3994 5.096 39.858 5.096ZM51.0405 21.28C49.7152 21.28 48.5112 20.972 47.4285 20.356C46.3645 19.74 45.5245 18.9 44.9085 17.836C44.2925 16.772 43.9845 15.5867 43.9845 14.28C43.9845 12.9547 44.2925 11.7693 44.9085 10.724C45.5245 9.66 46.3645 8.82 47.4285 8.204C48.5112 7.588 49.7152 7.28 51.0405 7.28C52.0859 7.28 53.0565 7.48533 53.9525 7.896C54.8672 8.288 55.6419 8.85733 56.2765 9.604L54.2605 11.648C53.8685 11.1813 53.3925 10.836 52.8325 10.612C52.2912 10.3693 51.6939 10.248 51.0405 10.248C50.2752 10.248 49.5939 10.4253 48.9965 10.78C48.4179 11.116 47.9605 11.5827 47.6245 12.18C47.3072 12.7773 47.1485 13.4773 47.1485 14.28C47.1485 15.064 47.3072 15.764 47.6245 16.38C47.9605 16.9773 48.4179 17.4533 48.9965 17.808C49.5939 18.144 50.2752 18.312 51.0405 18.312C51.6939 18.312 52.2912 18.2 52.8325 17.976C53.3925 17.7333 53.8685 17.3787 54.2605 16.912L56.2765 18.956C55.6419 19.7027 54.8672 20.2813 53.9525 20.692C53.0565 21.084 52.0859 21.28 51.0405 21.28ZM67.0371 21L61.3531 14.14L67.0091 7.56H70.6771L64.1811 14.952L64.3211 13.188L70.9571 21H67.0371ZM58.4971 21V0.839999H61.5771V21H58.4971Z" fill="black"/>
<path d="M75.4298 13.608V10.808H80.3298C81.0018 10.808 81.5898 10.6773 82.0938 10.416C82.6165 10.136 83.0272 9.75333 83.3258 9.268C83.6245 8.764 83.7738 8.176 83.7738 7.504C83.7738 6.832 83.6245 6.25333 83.3258 5.768C83.0272 5.264 82.6165 4.88133 82.0938 4.62C81.5898 4.34 81.0018 4.2 80.3298 4.2H75.4298V1.4H80.4978C81.7298 1.4 82.8312 1.652 83.8018 2.156C84.7912 2.66 85.5658 3.36933 86.1258 4.284C86.7045 5.19867 86.9938 6.272 86.9938 7.504C86.9938 8.736 86.7045 9.80933 86.1258 10.724C85.5658 11.6387 84.7912 12.348 83.8018 12.852C82.8312 13.356 81.7298 13.608 80.4978 13.608H75.4298ZM73.2178 21V1.4H76.4378V21H73.2178ZM89.7243 21V7.56H92.8043V21H89.7243ZM91.2643 5.096C90.7416 5.096 90.3029 4.91867 89.9483 4.564C89.6123 4.20933 89.4443 3.77067 89.4443 3.248C89.4443 2.72533 89.6123 2.28667 89.9483 1.932C90.3029 1.57733 90.7416 1.4 91.2643 1.4C91.8056 1.4 92.2443 1.57733 92.5803 1.932C92.9163 2.28667 93.0843 2.72533 93.0843 3.248C93.0843 3.77067 92.9163 4.20933 92.5803 4.564C92.2443 4.91867 91.8056 5.096 91.2643 5.096ZM104.799 21L99.1148 14.14L104.771 7.56H108.439L101.943 14.952L102.083 13.188L108.719 21H104.799ZM96.2588 21V0.839999H99.3388V21H96.2588Z" fill="#3CDA5F"/>
</svg>
